name rise35.5848peak51.9257fall54.8793.mot
datacolumns 19
datarows 12
range 1.91332000000000 1.93165600000000
endheader
time	ground_force1_vx	ground_force1_vy	ground_force1_vz	ground_force1_px	ground_force1_py	ground_force1_pz	ground_force2_vx	ground_force2_vy	ground_force2_vz	ground_force2_px	ground_force2_py	ground_force2_pz	ground_torque1_x	ground_torque1_y	ground_torque1_z	ground_torque2_x	ground_torque2_y	ground_torque2_z	
1.91332000000000	58.73738000000000	754.83805900000004	46.77341600000000	0.31775600000000	0.00000000000000	0.09299100000000	0.00000000000000	0.00000000000000	0.00000000000000	0.00000000000000	0.00000000000000	0.00000000000000	0.00000000000000	18.05576800000000	0.00000000000000	0.00000000000000	0.00000000000000	0.00000000000000	
1.91498500000000	58.15367500000000	758.01368100000002	46.94937400000000	0.31693000000000	0.00000000000000	0.09299000000000	0.00000000000000	0.00000000000000	0.00000000000000	0.00000000000000	0.00000000000000	0.00000000000000	0.00000000000000	18.15378500000000	0.00000000000000	0.00000000000000	0.00000000000000	0.00000000000000	
1.91665300000000	57.56788200000000	761.06298400000003	47.12168400000000	0.31611700000000	0.00000000000000	0.09298800000000	0.00000000000000	0.00000000000000	0.00000000000000	0.00000000000000	0.00000000000000	0.00000000000000	0.00000000000000	18.25024900000000	0.00000000000000	0.00000000000000	0.00000000000000	0.00000000000000	
1.91832400000000	56.98076000000000	763.98481100000004	47.29015500000000	0.31531500000000	0.00000000000000	0.09298800000000	0.00000000000000	0.00000000000000	0.00000000000000	0.00000000000000	0.00000000000000	0.00000000000000	0.00000000000000	18.34495500000000	0.00000000000000	0.00000000000000	0.00000000000000	0.00000000000000	
1.91999200000000	56.39301300000000	766.77806899999996	47.45454200000000	0.31452300000000	0.00000000000000	0.09298800000000	0.00000000000000	0.00000000000000	0.00000000000000	0.00000000000000	0.00000000000000	0.00000000000000	0.00000000000000	18.43766900000000	0.00000000000000	0.00000000000000	0.00000000000000	0.00000000000000	
1.92166500000000	55.80529100000000	769.44174399999997	47.61455400000000	0.31373900000000	0.00000000000000	0.09298900000000	0.00000000000000	0.00000000000000	0.00000000000000	0.00000000000000	0.00000000000000	0.00000000000000	0.00000000000000	18.52813300000000	0.00000000000000	0.00000000000000	0.00000000000000	0.00000000000000	
1.92332100000000	55.21818600000000	771.97490000000005	47.76985500000000	0.31296200000000	0.00000000000000	0.09299000000000	0.00000000000000	0.00000000000000	0.00000000000000	0.00000000000000	0.00000000000000	0.00000000000000	0.00000000000000	18.61606800000000	0.00000000000000	0.00000000000000	0.00000000000000	0.00000000000000	
1.92499000000000	54.63224300000000	774.37669700000004	47.92007000000000	0.31219200000000	0.00000000000000	0.09299300000000	0.00000000000000	0.00000000000000	0.00000000000000	0.00000000000000	0.00000000000000	0.00000000000000	0.00000000000000	18.70117500000000	0.00000000000000	0.00000000000000	0.00000000000000	0.00000000000000	
1.92665700000000	54.04795100000000	776.64639000000000	48.06478800000000	0.31142600000000	0.00000000000000	0.09299600000000	0.00000000000000	0.00000000000000	0.00000000000000	0.00000000000000	0.00000000000000	0.00000000000000	0.00000000000000	18.78313700000000	0.00000000000000	0.00000000000000	0.00000000000000	0.00000000000000	
1.92832600000000	53.46575200000000	778.78334600000005	48.20356700000000	0.31066300000000	0.00000000000000	0.09300000000000	0.00000000000000	0.00000000000000	0.00000000000000	0.00000000000000	0.00000000000000	0.00000000000000	0.00000000000000	18.86162600000000	0.00000000000000	0.00000000000000	0.00000000000000	0.00000000000000	
1.92998900000000	52.88604000000000	780.78704400000004	48.33594100000000	0.30990300000000	0.00000000000000	0.09300400000000	0.00000000000000	0.00000000000000	0.00000000000000	0.00000000000000	0.00000000000000	0.00000000000000	0.00000000000000	18.93630100000000	0.00000000000000	0.00000000000000	0.00000000000000	0.00000000000000	
1.93165600000000	52.30916200000000	782.65708600000005	48.46141800000000	0.30914300000000	0.00000000000000	0.09300900000000	0.00000000000000	0.00000000000000	0.00000000000000	0.00000000000000	0.00000000000000	0.00000000000000	0.00000000000000	19.00681500000000	0.00000000000000	0.00000000000000	0.00000000000000	0.00000000000000	
